<?xml version="1.0" encoding="utf-8"?>
<!-- Generator: Adobe Illustrator 16.0.0, SVG Export Plug-In . SVG Version: 6.00 Build 0)  -->
<!DOCTYPE svg PUBLIC "-//W3C//DTD SVG 1.1//EN" "http://www.w3.org/Graphics/SVG/1.1/DTD/svg11.dtd">
<svg version="1.1" id="Layer_1" xmlns="http://www.w3.org/2000/svg" xmlns:xlink="http://www.w3.org/1999/xlink" x="0px" y="0px"
	 width="150px" height="150px" viewBox="0 0 150 150" enable-background="new 0 0 150 150" xml:space="preserve">
<g>
	<polyline fill="none" stroke="#1EA8FF" stroke-width="3" stroke-miterlimit="10" points="46.216,76.361 38.453,71.446 
		50.707,48.492 62.71,53.457 73.882,51.931 77.508,52.986 	"/>
	<polyline fill="none" stroke="#1EA8FF" stroke-width="3" stroke-miterlimit="10" points="102.286,78.855 103.582,76.682 
		114.214,69.449 101.404,47.344 89.682,52.696 78.24,52.064 59.876,61.845 58.34,65.491 60.603,69.412 64.71,69.51 75.213,63.451 
		82.725,66.999 106.574,80.702 108.157,83.813 106.189,87.463 102.368,87.666 84.749,78.2 100.988,86.945 102.605,90.068 
		100.654,93.766 96.896,94.014 80.848,85.507 94.016,92.534 95.631,95.658 93.682,99.355 89.92,99.602 76.999,92.721 86.005,97.572 
		87.621,100.701 85.667,104.404 81.9,104.656 69.375,98.602 	"/>
	<polygon fill="none" stroke="#1EA8FF" stroke-width="3" stroke-miterlimit="10" points="54.243,78.818 54.05,75.843 50.86,73.315 
		47.702,73.961 42.121,80.939 42.423,84.004 45.616,86.529 48.661,85.798 	"/>
	<polygon fill="none" stroke="#1EA8FF" stroke-width="3" stroke-miterlimit="10" points="61.463,82.667 61.444,79.466 
		58.254,76.938 54.909,77.825 48.632,85.695 48.763,88.98 51.951,91.51 55.188,90.536 	"/>
	<polygon fill="none" stroke="#1EA8FF" stroke-width="3" stroke-miterlimit="10" points="67.082,88.568 66.923,85.549 
		63.732,83.021 60.54,83.713 54.828,90.859 55.097,93.966 58.287,96.491 61.371,95.716 	"/>
	<polygon fill="none" stroke="#1EA8FF" stroke-width="3" stroke-miterlimit="10" points="72.913,94.199 72.654,91.307 
		69.463,88.782 66.378,89.333 61.064,95.971 61.432,98.948 64.624,101.475 67.598,100.837 	"/>
</g>
</svg>
