<?xml version="1.0" encoding="utf-8"?>
<!-- Generator: Adobe Illustrator 16.0.0, SVG Export Plug-In . SVG Version: 6.00 Build 0)  -->
<!DOCTYPE svg PUBLIC "-//W3C//DTD SVG 1.1//EN" "http://www.w3.org/Graphics/SVG/1.1/DTD/svg11.dtd">
<svg version="1.1" id="Layer_1" xmlns="http://www.w3.org/2000/svg" xmlns:xlink="http://www.w3.org/1999/xlink" x="0px" y="0px"
	 width="150px" height="150px" viewBox="0 0 150 150" enable-background="new 0 0 150 150" xml:space="preserve">
<g>
	<path fill="none" stroke="#1EA8FF" stroke-width="3" stroke-miterlimit="10" d="M70.129,50.394
		c4.372-5.294,11.74-8.996,18.764-8.999c3.844-0.002,18.981,5.889,18.981,5.889l-0.528,3.338"/>
	<polyline fill="none" stroke="#1EA8FF" stroke-width="3" stroke-miterlimit="10" points="84.25,62.085 88.646,65.245 
		93.032,50.321 107.361,50.601 107.258,63.363 112.495,70.976 108.438,73.009 106.434,84.652 97.209,85.216 97.414,100.605 
		83.746,94.092 	"/>
	<path fill="none" stroke="#1EA8FF" stroke-width="3" stroke-miterlimit="10" d="M84.287,59.621l0.561-3.338
		c0,0-15.073-5.891-18.917-5.889c-11.211,0.005-23.169,9.434-22.552,19.717c0.341,5.697,0.483,26.883-3.873,33.752l19.097-1.98
		l15.978,7.723l-0.462-15.389l9.225-0.563l2.004-11.644l4.057-2.03l-5.235-7.607l0.104-12.752l-10.739,12.55l-7.976,2.153
		l-5.871-4.139l-3.193,2.605l3.174,9.022l-1.063,20.068"/>
</g>
</svg>
