<svg xmlns="http://www.w3.org/2000/svg" width="65.264" height="65" viewBox="0 0 65.264 65">
  <g id="Icono_Instagram" transform="translate(-39.3 -39.8)">
    <path id="Path_12" data-name="Path 12" d="M85.327,39.8H58.536C47.956,39.8,39.3,48.208,39.3,58.54V86.091c0,10.3,8.656,18.709,19.252,18.709H85.327c10.611,0,19.236-8.408,19.236-18.709V58.54A19.023,19.023,0,0,0,85.327,39.8ZM99.46,86.091C99.46,93.6,93.115,99.7,85.312,99.7H58.536A13.887,13.887,0,0,1,44.419,86.091V58.54A13.89,13.89,0,0,1,58.536,44.919H85.327A13.908,13.908,0,0,1,99.475,58.54V86.091Z" fill="#fff"/>
    <path id="Path_13" data-name="Path 13" d="M159.637,142.6a16.553,16.553,0,1,0,16.568,16.552A16.555,16.555,0,0,0,159.637,142.6Zm0,28.73a12.178,12.178,0,1,1,12.193-12.178,12.175,12.175,0,0,1-12.193,12.178Z" transform="translate(-87.697 -86.853)" fill="#fff"/>
    <path id="Path_14" data-name="Path 14" d="M340.594,112a3.886,3.886,0,1,0,3.863,3.878A3.857,3.857,0,0,0,340.594,112Z" transform="translate(-251.264 -61)" fill="#fff"/>
  </g>
</svg>
