<svg xmlns="http://www.w3.org/2000/svg" width="79.909" height="65" viewBox="0 0 79.909 65">
  <path id="Icono_Twitter" d="M119.909,86.8a32.663,32.663,0,0,1-9.432,2.567A16.42,16.42,0,0,0,117.7,80.3a32.8,32.8,0,0,1-10.4,3.975,16.427,16.427,0,0,0-28.392,11.2,16.163,16.163,0,0,0,.437,3.746A46.543,46.543,0,0,1,45.534,82.086a16.482,16.482,0,0,0,5.1,21.927,16.424,16.424,0,0,1-7.417-2.092v.228a16.422,16.422,0,0,0,13.16,16.088,16.3,16.3,0,0,1-4.317.571,14.734,14.734,0,0,1-3.081-.285A16.412,16.412,0,0,0,64.3,129.913a32.886,32.886,0,0,1-20.386,7.036A33.819,33.819,0,0,1,40,136.721,46.4,46.4,0,0,0,65.14,144.1c30.18,0,46.668-25.007,46.668-46.668q0-1.055-.057-2.111a34.066,34.066,0,0,0,8.158-8.52Z" transform="translate(-40 -79.1)" fill="#fff"/>
</svg>
